<?xml version="1.0" standalone="no"?>
<!DOCTYPE svg PUBLIC "-//W3C//DTD SVG 20010904//EN"
 "http://www.w3.org/TR/2001/REC-SVG-20010904/DTD/svg10.dtd">
<svg version="1.0" xmlns="http://www.w3.org/2000/svg"
 width="412.000000pt" height="206.000000pt" viewBox="0 0 412.000000 206.000000"
 preserveAspectRatio="xMidYMid meet">

<g transform="translate(0.000000,206.000000) scale(0.100000,-0.100000)"
fill="none" stroke="#000" stroke-width="10">
<path d="M1690 1800 c-223 -18 -380 -153 -620 -535 -184 -293 -347 -364 -535
-235 -53 36 -82 65 -137 137 -48 63 -83 78 -130 55 -48 -25 -55 -56 -34 -149
57 -242 195 -455 371 -572 67 -44 133 -79 165 -87 8 -2 33 -10 55 -18 131 -47
372 -51 575 -11 260 53 421 132 590 291 l55 52 72 -68 c137 -129 269 -202 443
-246 148 -37 166 -40 310 -53 421 -37 745 141 914 503 47 100 90 258 82 299
-9 47 -33 67 -78 67 -30 0 -45 -6 -64 -27 -160 -182 -238 -236 -340 -234 -119
1 -240 92 -338 255 -193 318 -361 498 -518 553 -103 36 -326 33 -428 -6 -54
-21 -64 -21 -95 -4 -50 27 -194 42 -315 33"/>
</g>
</svg>
