<?xml version="1.0" standalone="no"?>
<!DOCTYPE svg PUBLIC "-//W3C//DTD SVG 20010904//EN"
 "http://www.w3.org/TR/2001/REC-SVG-20010904/DTD/svg10.dtd">
<svg version="1.0" xmlns="http://www.w3.org/2000/svg"
 width="360.000000pt" height="360.000000pt" viewBox="0 0 400.000000 400.000000"
 preserveAspectRatio="xMidYMid meet">

<g transform="translate(20.000000,360.000000) scale(0.100000,-0.100000)"
fill="none" stroke="#000000" stroke-width="100">
<path d="M2332 3350 c-490 -41 -745 -274 -718 -658 9 -122 27 -206 76 -349 72
-207 83 -260 58 -280 -7 -6 -62 -20 -123 -33 -235 -48 -523 -140 -691 -219
-128 -61 -194 -104 -271 -174 -35 -33 -70 -57 -82 -57 -28 0 -113 79 -163 152
-21 32 -59 98 -84 148 -48 95 -72 120 -115 120 -45 0 -75 -35 -110 -123 -110
-285 -137 -628 -69 -877 27 -97 106 -259 164 -336 124 -166 319 -307 548 -398
l66 -26 927 0 c847 0 930 1 962 17 52 24 207 175 275 267 70 93 138 231 168
336 27 94 38 292 21 382 -38 200 -141 408 -293 591 -44 54 -48 62 -42 95 12
69 40 102 87 102 18 0 81 11 142 25 158 36 294 104 385 194 120 118 155 228
148 465 -4 142 -14 172 -64 194 -41 19 -59 15 -172 -43 -59 -31 -129 -60 -157
-65 -27 -4 -51 -7 -52 -6 -1 1 -9 37 -18 81 -23 114 -82 230 -152 301 -139
141 -353 198 -651 174"/>
</g>
</svg>
